<svg xmlns="http://www.w3.org/2000/svg" width="462.000000pt" height="840.000000pt" viewBox="0 0 462.000000 840.000000" preserveAspectRatio="xMidYMid meet" class="Login__BrandIcon-sc-1u3l62p-3 dAzNWI"><g transform="translate(0.000000,840.000000) scale(0.100000,-0.100000)" fill="#264d91" stroke="none"><path d="M3405 8273 c-11 -2 -78 -15 -150 -29 -619 -120 -1206 -357 -1647 -667 -849 -596 -1350 -1489 -1472 -2627 -33 -299 -36 -519 -36 -2687 l0 -2183 530 0 530 0 0 1590 0 1590 1171 0 1171 0 -6 -48 c-22 -152 -92 -405 -158 -577 -141 -363 -381 -716 -656 -968 -360 -330 -790 -502 -1329 -533 l-123 -7 0 -525 0 -525 158 6 c555 23 1083 195 1548 503 517 342 974 856 1247 1401 203 405 313 786 374 1293 16 133 17 345 20 2573 l4 2427 -527 0 -526 0 8 -1970 7 -1970 -1191 0 -1192 0 0 118 c0 332 58 749 145 1052 228 787 734 1289 1585 1569 114 38 433 121 523 136 l37 6 0 529 c0 418 -3 530 -12 529 -7 -1 -22 -3 -33 -6z"></path></g></svg>